<?xml version="1.0"?>
<svg xmlns="http://www.w3.org/2000/svg" id="Layer_5" enable-background="new 0 0 64 64" height="512px" viewBox="0 0 64 64" width="512px" class="hovered-paths"><g><path d="m19 21c0-2.757-2.243-5-5-5s-5 2.243-5 5 2.243 5 5 5 5-2.243 5-5zm-5 2c-1.103 0-2-.897-2-2s.897-2 2-2 2 .897 2 2-.897 2-2 2z" data-original="#000000" class="hovered-path active-path" data-old_color="#000000" fill="#00BAFF"/><path d="m7 20h.08c.488-3.387 3.401-6 6.92-6s6.432 2.613 6.92 6h6.08v-8h-20c-2.206 0-4 1.794-4 4s1.794 4 4 4z" data-original="#000000" class="hovered-path active-path" data-old_color="#000000" fill="#00BAFF"/><path d="m12 27.705v5.295h4v-5.295c-.634.19-1.305.295-2 .295s-1.366-.105-2-.295z" data-original="#000000" class="hovered-path active-path" data-old_color="#000000" fill="#00BAFF"/><path d="m47 5c0-1.103-.897-2-2-2s-2 .897-2 2v2h4z" data-original="#000000" class="hovered-path active-path" data-old_color="#000000" fill="#00BAFF"/><path d="m45 35c2.757 0 5-2.243 5-5s-2.243-5-5-5-5 2.243-5 5 2.243 5 5 5zm0-7c1.103 0 2 .897 2 2s-.897 2-2 2-2-.897-2-2 .897-2 2-2z" data-original="#000000" class="hovered-path active-path" data-old_color="#000000" fill="#00BAFF"/><path d="m49 24.264v-15.264h-8v15.264c1.135-.794 2.513-1.264 4-1.264s2.865.47 4 1.264zm-4-13.264h2v2h-2zm0 4h2v2h-2zm0 4h2v2h-2z" data-original="#000000" class="hovered-path active-path" data-old_color="#000000" fill="#00BAFF"/><path d="m9.677 49h12.042l-3.5-14h-8.684l-3.411 5.117zm9.543-2.242-1.94.484-.485-1.94 1.94-.484zm-.97-3.881-1.94.484-.485-1.94 1.94-.484zm-1.455-5.821.485 1.94-1.94.484-.485-1.94z" data-original="#000000" class="hovered-path active-path" data-old_color="#000000" fill="#00BAFF"/><path d="m22.405 51h-12.787l-2 4h16.77z" data-original="#000000" class="hovered-path active-path" data-old_color="#000000" fill="#00BAFF"/><path d="m43 45h4v4h-4z" data-original="#000000" class="hovered-path active-path" data-old_color="#000000" fill="#00BAFF"/><path d="m43 57h4v4h-4z" data-original="#000000" class="hovered-path active-path" data-old_color="#000000" fill="#00BAFF"/><path d="m38.08 31h-2.559l-6.406 9.152 3.885 11.01v-5.162-6.509l6.732-4.896c-.867-.993-1.456-2.23-1.652-3.595z" data-original="#000000" class="hovered-path active-path" data-old_color="#000000" fill="#00BAFF"/><path d="m57 51.162 3.886-11.01-6.407-9.152h-2.559c-.197 1.365-.785 2.602-1.652 3.595l6.732 4.896v6.509z" data-original="#000000" class="hovered-path active-path" data-old_color="#000000" fill="#00BAFF"/><path d="m54 45h-5v6h-8v-6h-5c-.551 0-1 .449-1 1v8 6c0 .551.449 1 1 1h5v-6h8v6h5c.551 0 1-.449 1-1v-6-8c0-.551-.449-1-1-1z" data-original="#000000" class="hovered-path active-path" data-old_color="#000000" fill="#00BAFF"/><path d="m29 14h10v4h-10z" data-original="#000000" class="hovered-path active-path" data-old_color="#000000" fill="#00BAFF"/><path d="m26 57h-20c-1.654 0-3 1.346-3 3v1h26v-1c0-1.654-1.346-3-3-3z" data-original="#000000" class="hovered-path active-path" data-old_color="#000000" fill="#00BAFF"/></g> </svg>
