<?xml version="1.0"?>
<svg xmlns="http://www.w3.org/2000/svg" height="512px" viewBox="0 0 64 64" width="512px"><g><path d="m50.681 20.307a7.992 7.992 0 0 0 8.677-10.007l-4.411 4.412a1 1 0 0 1 -.707.288h-4.24a1 1 0 0 1 -1-1v-4.24a1 1 0 0 1 .293-.707l4.407-4.412a7.994 7.994 0 0 0 -10.011 8.683 4.957 4.957 0 0 1 -1.42 4.157l-24.8 24.8a4.961 4.961 0 0 1 -4.158 1.416 7.993 7.993 0 0 0 -8.67 10.003l4.412-4.411a1 1 0 0 1 .707-.289h4.24a1 1 0 0 1 1 1v4.24a1 1 0 0 1 -.293.707l-4.407 4.412a7.994 7.994 0 0 0 10.011-8.683 4.951 4.951 0 0 1 1.42-4.157l24.8-24.8a4.961 4.961 0 0 1 4.15-1.412z" data-original="#000000" class="active-path" data-old_color="#000000" fill="#00BAFF"/><path d="m6.717 4.958-1.759 1.759 3.964 7.24 2.749-.33a1 1 0 0 1 .826.286l15.258 15.258 1.416-1.416-15.258-15.255a1 1 0 0 1 -.286-.826l.33-2.749z" data-original="#000000" class="active-path" data-old_color="#000000" fill="#00BAFF"/><path d="m34 39h12v2h-12z" transform="matrix(.707 -.707 .707 .707 -16.569 40.02)" data-original="#000000" class="active-path" data-old_color="#000000" fill="#00BAFF"/><path d="m35.706 35.053h2.003v3.31h-2.003z" transform="matrix(.707 -.707 .707 .707 -15.205 36.708)" data-original="#000000" class="active-path" data-old_color="#000000" fill="#00BAFF"/><path d="m58.506 58.506a4 4 0 0 0 0-5.657l-13.556-13.556-5.657 5.657 13.557 13.556a4.1 4.1 0 0 0 5.656 0z" data-original="#000000" class="active-path" data-old_color="#000000" fill="#00BAFF"/></g> </svg>
