<?xml version="1.0"?>
<svg xmlns="http://www.w3.org/2000/svg" xmlns:xlink="http://www.w3.org/1999/xlink" version="1.1" id="Capa_1" x="0px" y="0px" viewBox="0 0 373.28 373.28" style="enable-background:new 0 0 373.28 373.28;" xml:space="preserve" width="512px" height="512px"><g><g>
	<g>
		<path d="M368.48,263.784l-11.84-20.4l11.84-20.4l-0.08-0.56c2.676-3.841,4.328-8.302,4.8-12.96c0-6.56-3.44-11.44-14.16-11.44    h-89.92c-3.52,0.001-6.914,1.313-9.52,3.68l-0.48,0.48c-2.677,2.67-4.175,6.299-4.16,10.08v6.24h46.48    c7.651-0.078,15.04,2.786,20.64,8l0.48,0.48c5.635,5.616,8.802,13.244,8.8,21.2v40h27.76c10.72,0,14.16-4.88,14.16-11.44    C372.808,272.086,371.156,267.626,368.48,263.784z" data-original="#000000" class="active-path" data-old_color="#000000" fill="#00BAFF"/>
	</g>
</g><g>
	<g>
		<path d="M114.16,202.504l-0.48-0.48c-2.606-2.367-6-3.679-9.52-3.68H14.24c-10.72,0-14.16,4.88-14.16,11.44    c0.472,4.658,2.124,9.119,4.8,12.96l11.84,20.4l-11.76,20.24l-0.16,0.16c-2.676,3.841-4.328,8.302-4.8,12.96    c0,6.56,3.44,11.44,14.16,11.44h27.76v-40c0.074-7.807,3.204-15.274,8.72-20.8c5.657-5.604,13.318-8.714,21.28-8.64h46.48v-6    C118.372,208.74,116.846,205.141,114.16,202.504z" data-original="#000000" class="active-path" data-old_color="#000000" fill="#00BAFF"/>
	</g>
</g><g>
	<g>
		<path d="M233.952,141.048c-0.943-0.965-2.151-1.628-3.472-1.904v0l-25.2-5.28l-12.8-22.32c-1.886-3.247-6.048-4.351-9.296-2.464    c-1.022,0.593-1.871,1.443-2.464,2.464l-12.8,22.32l-25.2,5.28c-3.677,0.763-6.04,4.362-5.277,8.039    c0.244,1.176,0.795,2.267,1.597,3.161l17.2,19.12l-2.72,25.6c-0.366,3.738,2.368,7.064,6.106,7.43    c1.166,0.114,2.342-0.075,3.414-0.55l23.6-10.48l23.2,10.4c3.371,1.654,7.446,0.263,9.1-3.109c0.561-1.144,0.79-2.423,0.66-3.691    l-2.72-25.6l16.96-18.8C236.526,148.04,236.577,143.734,233.952,141.048z" data-original="#000000" class="active-path" data-old_color="#000000" fill="#00BAFF"/>
	</g>
</g><g>
	<g>
		<path d="M206.551,49.633C140.52,38.659,78.094,83.291,67.12,149.323c-2.187,13.157-2.187,26.585,0,39.742h24.64    C80.723,136.619,114.291,85.157,166.736,74.12s103.907,22.531,114.944,74.976c2.773,13.178,2.773,26.79,0,39.968h24.56    C317.214,123.033,272.582,60.608,206.551,49.633z" data-original="#000000" class="active-path" data-old_color="#000000" fill="#00BAFF"/>
	</g>
</g><g>
	<g>
		<path d="M316.48,233.464c-3.917-3.941-9.244-6.158-14.8-6.16H71.92c-5.556,0.002-10.883,2.219-14.8,6.16    c-4.058,3.864-6.393,9.197-6.48,14.8v56c0,5.362,2.062,10.518,5.76,14.4l0.4,0.48c3.917,3.941,9.244,6.158,14.8,6.16h229.76    c11.619,0.133,21.146-9.179,21.279-20.799c0.001-0.08,0.001-0.161,0.001-0.241v-56    C322.638,242.708,320.421,237.381,316.48,233.464z" data-original="#000000" class="active-path" data-old_color="#000000" fill="#00BAFF"/>
	</g>
</g></g> </svg>
